<?xml version="1.0" encoding="UTF-8" standalone="no"?>
<!-- Created with Inkscape (http://www.inkscape.org/) -->

<svg
   width="137.46982mm"
   height="94.993835mm"
   viewBox="0 0 137.46982 94.993835"
   version="1.1"
   id="svg5"
   xml:space="preserve"
   inkscape:export-filename="whitebitmap.svg"
   inkscape:export-xdpi="96.258888"
   inkscape:export-ydpi="96.258888"
   xmlns:inkscape="http://www.inkscape.org/namespaces/inkscape"
   xmlns:sodipodi="http://sodipodi.sourceforge.net/DTD/sodipodi-0.dtd"
   xmlns="http://www.w3.org/2000/svg"
   xmlns:svg="http://www.w3.org/2000/svg"><sodipodi:namedview
     id="namedview7"
     pagecolor="#ffffff"
     bordercolor="#000000"
     borderopacity="0.25"
     inkscape:showpageshadow="2"
     inkscape:pageopacity="0.0"
     inkscape:pagecheckerboard="0"
     inkscape:deskcolor="#d1d1d1"
     inkscape:document-units="mm"
     showgrid="false" /><defs
     id="defs2"><rect
       x="37.572815"
       y="361.63834"
       width="483.75"
       height="47.905338"
       id="rect451" /><rect
       x="74.675972"
       y="323.12622"
       width="1093.205"
       height="86.739212"
       id="rect385" /></defs><g
     inkscape:label="Layer 1"
     inkscape:groupmode="layer"
     id="layer1"
     transform="translate(-36.810548,-105.73684)"><g
       id="g459"
       inkscape:export-filename="loho.svg"
       inkscape:export-xdpi="294.5199"
       inkscape:export-ydpi="294.5199"
       transform="matrix(0.26458333,0,0,0.26458333,29.198849,101.50938)"
       style="fill:#ffffff"><path
         style="fill:#ffffff;stroke-width:0.958141"
         d="m 268.79265,301.68041 -1.72398,-1.26061 1.11564,-10.47661 c 6.51649,-61.19438 45.83636,-111.17639 117.82013,-149.76873 6.0157,-3.22518 11.10045,-6.02676 11.29944,-6.22575 0.91879,-0.9188 -54.7141,-110.659474 -57.44343,-113.312107 l -1.20301,-1.169204 -9.64288,4.573327 c -20.03989,9.504314 -37.44684,23.288038 -53.07811,42.030006 l -4.22038,5.060258 -1.38812,-1.388111 -1.38811,-1.388111 5.75168,-7.038892 c 13.89803,-17.008344 30.92131,-30.446724 50.98587,-40.248833 l 10.10563,-4.936887 3.61007,-0.07615 3.61008,-0.07615 30.16438,59.269759 c 16.59041,32.598365 30.14681,59.546075 30.12533,59.883795 -0.0215,0.33772 -6.74967,4.27893 -14.95153,8.75824 -70.89042,38.71562 -108.54519,84.54567 -115.72209,140.84669 l -0.54963,4.31164 3.24736,-5.74885 c 1.78605,-3.16186 5.98922,-10.49164 9.34039,-16.28839 l 6.09302,-10.53955 15.33026,-15.63525 15.33025,-15.63525 14.96428,-10.87927 c 25.96737,-18.8787 52.87777,-32.79378 88.94785,-45.99397 25.88714,-9.47365 24.58828,-4.54149 9.74909,-37.02006 -20.8384,-45.609086 -39.21323,-85.275402 -39.75226,-85.814428 -0.83583,-0.835825 -8.87637,3.432334 -15.10786,8.019693 -5.26788,3.87799 -8.49871,4.764765 -8.49871,2.332664 0,-3.320872 17.5344,-14.145381 23.79884,-14.691745 l 3.02762,-0.264057 9.66595,20.600026 c 9.29435,19.8081 24.94502,54.017017 39.01332,85.274527 l 6.68418,14.85118 -1.09258,1.1358 c -0.60092,0.6247 -6.6977,3.05202 -13.54841,5.39405 -20.93582,7.15726 -34.60505,12.83485 -54.61402,22.68423 l -19.16282,9.43286 -12.9349,8.53535 c -34.30884,22.63935 -63.37181,52.72649 -72.40445,74.95598 -3.39493,8.35497 -2.8599,8.43538 5.81367,0.87366 4.21582,-3.6754 13.48583,-10.62374 20.60003,-15.44077 l 12.9349,-8.75822 14.37211,-6.92758 c 33.34592,-16.07324 69.46051,-26.45455 113.05283,-32.49755 10.00829,-1.38741 18.39433,-2.71999 18.63564,-2.96131 0.24131,-0.24131 -2.62069,-6.35296 -6.36002,-13.58144 -3.73933,-7.22848 -7.08825,-14.11281 -7.44205,-15.29851 l -0.6433,-2.15582 h 1.90622 1.90622 l 8.77006,16.52793 c 4.82353,9.09036 8.84538,16.93696 8.93743,17.43688 0.20776,1.12822 -3.94288,1.92444 -20.43265,3.91959 -72.15168,8.72988 -132.66545,33.59689 -170.64689,70.12416 -8.46745,8.14328 -9.7912,8.83494 -12.75758,6.66587 z m -35.38281,-23.89059 c -9.31556,-5.92849 -18.32954,-11.90025 -20.03105,-13.27056 l -3.09365,-2.4915 -0.68717,-105.77841 -0.68717,-105.778425 1.43311,-1.090538 c 2.62053,-1.994123 35.91687,-14.899276 37.18541,-14.412494 l 1.24738,0.478668 0.66382,49.670376 c 0.6054,45.299223 1.25027,80.983263 3.10095,171.593793 l 0.6507,31.85818 h -1.42247 c -0.78236,0 -9.04429,-4.85059 -18.35986,-10.77909 z m -56.94349,-30.3286 c -8.57755,-4.68807 -16.2307,-9.05089 -17.007,-9.69515 l -1.41144,-1.17141 v -58.86105 -58.86107 l 5.03024,-2.21913 c 6.7347,-2.97108 28.88277,-10.13125 31.33831,-10.13125 h 1.95708 l -0.002,53.89542 c -9.6e-4,29.64248 -0.28554,63.27322 -0.63165,74.73498 l -0.62931,20.83956 -1.52416,-0.004 c -0.83829,-0.002 -8.54216,-3.83926 -17.11972,-8.52733 z m -53.7683,-21.51798 -14.74982,-3.00698 -1.18819,-1.91628 -1.18819,-1.91628 -0.55036,-13.23225 -0.55036,-13.23226 6.4279,-2.90584 c 9.78314,-4.42264 29.45828,-12.30877 30.70921,-12.30877 h 1.10942 v 25.8698 25.8698 l -2.63489,-0.10698 c -1.44919,-0.0588 -9.27231,-1.46012 -17.38472,-3.11396 z"
         id="path329" /><text
         xml:space="preserve"
         id="text383"
         style="white-space:pre;shape-inside:url(#rect385);fill:#ffffff"
         transform="matrix(0.5335089,0,0,0.5335089,-12.638755,132.89074)"><tspan
           x="74.675781"
           y="380.77524"
           id="tspan1072"><tspan
             style="font-size:64px;font-family:'Yu Gothic UI';-inkscape-font-specification:'Yu Gothic UI, Normal'"
             id="tspan1070">CUM LAUDE RESEARCH INSTITUTE</tspan></tspan></text><text
         xml:space="preserve"
         id="text449"
         style="font-style:normal;font-variant:normal;font-weight:normal;font-stretch:normal;font-size:17.3333px;font-family:'Yu Gothic UI';-inkscape-font-specification:'Yu Gothic UI, Normal';font-variant-ligatures:normal;font-variant-caps:normal;font-variant-numeric:normal;font-variant-east-asian:normal;white-space:pre;shape-inside:url(#rect451);fill:#ffffff"
         transform="matrix(1.4543856,0,0,1.4543856,28.653153,-179.59288)"><tspan
           x="37.572266"
           y="377.25172"
           id="tspan1074">Preparing for a brighter future ahead</tspan></text></g></g></svg>
